G04 MADE WITH FRITZING*
G04 WWW.FRITZING.ORG*
G04 DOUBLE SIDED*
G04 HOLES PLATED*
G04 CONTOUR ON CENTER OF CONTOUR VECTOR*
%ASAXBY*%
%FSLAX23Y23*%
%MOIN*%
%OFA0B0*%
%SFA1.0B1.0*%
%ADD10C,0.088000*%
%ADD11C,0.085000*%
%ADD12C,0.080925*%
%ADD13C,0.080866*%
%ADD14C,0.074000*%
%ADD15C,0.084000*%
%ADD16C,0.134111*%
%ADD17C,0.079444*%
%ADD18C,0.150000*%
%ADD19C,0.080000*%
%ADD20C,0.049370*%
%ADD21R,0.088000X0.088000*%
%ADD22R,0.142161X0.142161*%
%ADD23R,0.085000X0.085000*%
%ADD24R,0.285591X0.285591*%
%ADD25R,0.069055X0.116299*%
%ADD26C,0.030000*%
%ADD27C,0.027000*%
%ADD28R,0.001000X0.001000*%
%LNMASK1*%
G90*
G70*
G54D10*
X252Y2876D03*
X252Y2776D03*
G54D11*
X1952Y476D03*
X1952Y176D03*
X1852Y476D03*
X1852Y176D03*
X1752Y476D03*
X1752Y176D03*
X1652Y476D03*
X1652Y176D03*
X1552Y476D03*
X1552Y176D03*
X1452Y476D03*
X1452Y176D03*
X1352Y476D03*
X1352Y176D03*
X1252Y476D03*
X1252Y176D03*
X1152Y476D03*
X1152Y176D03*
X1052Y476D03*
X1052Y176D03*
X952Y476D03*
X952Y176D03*
X852Y476D03*
X852Y176D03*
X752Y476D03*
X752Y176D03*
X652Y476D03*
X652Y176D03*
G54D12*
X1152Y676D03*
G54D13*
X959Y676D03*
G54D14*
X2252Y176D03*
X2252Y276D03*
X2252Y376D03*
X2252Y476D03*
X2252Y576D03*
X2252Y676D03*
G54D15*
X551Y1276D03*
X652Y1276D03*
X753Y1276D03*
X852Y1276D03*
X952Y1276D03*
X1052Y1276D03*
X1153Y1275D03*
X1253Y1276D03*
X1354Y1276D03*
X1452Y1276D03*
X1557Y1276D03*
X1653Y1276D03*
X1753Y1276D03*
X1852Y1276D03*
X1952Y1276D03*
G54D16*
X1756Y2904D03*
X1554Y2904D03*
X1356Y2904D03*
G54D17*
X252Y376D03*
X252Y276D03*
X252Y176D03*
G54D18*
X3052Y2776D03*
X2812Y2776D03*
X2932Y2586D03*
G54D10*
X2552Y876D03*
X2452Y876D03*
G54D19*
X1152Y976D03*
X1152Y876D03*
X952Y976D03*
X952Y876D03*
G54D11*
X3052Y1876D03*
X3152Y1876D03*
X2552Y1276D03*
X2652Y1276D03*
X3252Y2176D03*
X2852Y2176D03*
G54D20*
X2868Y1340D03*
X2028Y572D03*
X1380Y380D03*
X1956Y620D03*
X2100Y764D03*
X2820Y1556D03*
X1092Y596D03*
X660Y1124D03*
G54D21*
X252Y2876D03*
G54D22*
X1160Y2904D03*
G54D23*
X3052Y1876D03*
X2552Y1276D03*
G54D24*
X3052Y1476D03*
G54D25*
X3150Y1202D03*
X2954Y1202D03*
G54D26*
G36*
X1980Y448D02*
X1925Y448D01*
X1925Y503D01*
X1980Y503D01*
X1980Y448D01*
G37*
D02*
G54D27*
G36*
X523Y1304D02*
X579Y1304D01*
X579Y1248D01*
X523Y1248D01*
X523Y1304D01*
G37*
D02*
G54D28*
X744Y2971D02*
X756Y2971D01*
X946Y2971D02*
X958Y2971D01*
X1152Y2971D02*
X1164Y2971D01*
X737Y2970D02*
X762Y2970D01*
X940Y2970D02*
X965Y2970D01*
X1146Y2970D02*
X1171Y2970D01*
X733Y2969D02*
X766Y2969D01*
X936Y2969D02*
X969Y2969D01*
X1142Y2969D02*
X1175Y2969D01*
X729Y2968D02*
X770Y2968D01*
X932Y2968D02*
X973Y2968D01*
X1138Y2968D02*
X1179Y2968D01*
X727Y2967D02*
X773Y2967D01*
X929Y2967D02*
X975Y2967D01*
X1135Y2967D02*
X1181Y2967D01*
X724Y2966D02*
X776Y2966D01*
X926Y2966D02*
X978Y2966D01*
X1132Y2966D02*
X1184Y2966D01*
X722Y2965D02*
X778Y2965D01*
X924Y2965D02*
X980Y2965D01*
X1130Y2965D02*
X1186Y2965D01*
X720Y2964D02*
X780Y2964D01*
X922Y2964D02*
X982Y2964D01*
X1128Y2964D02*
X1188Y2964D01*
X718Y2963D02*
X782Y2963D01*
X920Y2963D02*
X984Y2963D01*
X1126Y2963D02*
X1190Y2963D01*
X716Y2962D02*
X783Y2962D01*
X919Y2962D02*
X986Y2962D01*
X1125Y2962D02*
X1192Y2962D01*
X715Y2961D02*
X785Y2961D01*
X917Y2961D02*
X987Y2961D01*
X1123Y2961D02*
X1193Y2961D01*
X713Y2960D02*
X786Y2960D01*
X916Y2960D02*
X989Y2960D01*
X1122Y2960D02*
X1195Y2960D01*
X712Y2959D02*
X788Y2959D01*
X914Y2959D02*
X990Y2959D01*
X1120Y2959D02*
X1196Y2959D01*
X710Y2958D02*
X789Y2958D01*
X913Y2958D02*
X992Y2958D01*
X1119Y2958D02*
X1198Y2958D01*
X709Y2957D02*
X791Y2957D01*
X911Y2957D02*
X993Y2957D01*
X1117Y2957D02*
X1199Y2957D01*
X708Y2956D02*
X792Y2956D01*
X910Y2956D02*
X994Y2956D01*
X1116Y2956D02*
X1200Y2956D01*
X706Y2955D02*
X793Y2955D01*
X909Y2955D02*
X996Y2955D01*
X1115Y2955D02*
X1201Y2955D01*
X705Y2954D02*
X794Y2954D01*
X908Y2954D02*
X997Y2954D01*
X1114Y2954D02*
X1203Y2954D01*
X704Y2953D02*
X795Y2953D01*
X907Y2953D02*
X998Y2953D01*
X1113Y2953D02*
X1204Y2953D01*
X703Y2952D02*
X796Y2952D01*
X906Y2952D02*
X999Y2952D01*
X1112Y2952D02*
X1205Y2952D01*
X702Y2951D02*
X797Y2951D01*
X905Y2951D02*
X1000Y2951D01*
X1111Y2951D02*
X1206Y2951D01*
X701Y2950D02*
X798Y2950D01*
X904Y2950D02*
X1001Y2950D01*
X1110Y2950D02*
X1207Y2950D01*
X700Y2949D02*
X799Y2949D01*
X903Y2949D02*
X1002Y2949D01*
X1109Y2949D02*
X1208Y2949D01*
X699Y2948D02*
X800Y2948D01*
X902Y2948D02*
X1003Y2948D01*
X1108Y2948D02*
X1208Y2948D01*
X699Y2947D02*
X801Y2947D01*
X901Y2947D02*
X1003Y2947D01*
X1107Y2947D02*
X1209Y2947D01*
X698Y2946D02*
X802Y2946D01*
X900Y2946D02*
X1004Y2946D01*
X1106Y2946D02*
X1210Y2946D01*
X697Y2945D02*
X802Y2945D01*
X900Y2945D02*
X1005Y2945D01*
X1106Y2945D02*
X1211Y2945D01*
X696Y2944D02*
X803Y2944D01*
X899Y2944D02*
X1006Y2944D01*
X1105Y2944D02*
X1212Y2944D01*
X696Y2943D02*
X804Y2943D01*
X898Y2943D02*
X1006Y2943D01*
X1104Y2943D02*
X1212Y2943D01*
X695Y2942D02*
X805Y2942D01*
X897Y2942D02*
X1007Y2942D01*
X1103Y2942D02*
X1213Y2942D01*
X694Y2941D02*
X805Y2941D01*
X897Y2941D02*
X1008Y2941D01*
X1103Y2941D02*
X1214Y2941D01*
X694Y2940D02*
X806Y2940D01*
X896Y2940D02*
X1008Y2940D01*
X1102Y2940D02*
X1214Y2940D01*
X693Y2939D02*
X806Y2939D01*
X896Y2939D02*
X1009Y2939D01*
X1102Y2939D02*
X1215Y2939D01*
X692Y2938D02*
X807Y2938D01*
X895Y2938D02*
X1010Y2938D01*
X1101Y2938D02*
X1216Y2938D01*
X692Y2937D02*
X808Y2937D01*
X894Y2937D02*
X1010Y2937D01*
X1100Y2937D02*
X1216Y2937D01*
X691Y2936D02*
X808Y2936D01*
X894Y2936D02*
X1011Y2936D01*
X1100Y2936D02*
X1217Y2936D01*
X691Y2935D02*
X809Y2935D01*
X893Y2935D02*
X1011Y2935D01*
X1099Y2935D02*
X1217Y2935D01*
X690Y2934D02*
X809Y2934D01*
X893Y2934D02*
X1012Y2934D01*
X1099Y2934D02*
X1218Y2934D01*
X690Y2933D02*
X810Y2933D01*
X892Y2933D02*
X1012Y2933D01*
X1098Y2933D02*
X1218Y2933D01*
X689Y2932D02*
X810Y2932D01*
X892Y2932D02*
X1013Y2932D01*
X1098Y2932D02*
X1219Y2932D01*
X689Y2931D02*
X811Y2931D01*
X891Y2931D02*
X1013Y2931D01*
X1097Y2931D02*
X1219Y2931D01*
X688Y2930D02*
X811Y2930D01*
X891Y2930D02*
X1014Y2930D01*
X1097Y2930D02*
X1220Y2930D01*
X688Y2929D02*
X812Y2929D01*
X890Y2929D02*
X1014Y2929D01*
X1096Y2929D02*
X1220Y2929D01*
X688Y2928D02*
X812Y2928D01*
X890Y2928D02*
X1014Y2928D01*
X1096Y2928D02*
X1220Y2928D01*
X687Y2927D02*
X812Y2927D01*
X890Y2927D02*
X1015Y2927D01*
X1096Y2927D02*
X1221Y2927D01*
X687Y2926D02*
X813Y2926D01*
X889Y2926D02*
X1015Y2926D01*
X1095Y2926D02*
X1221Y2926D01*
X687Y2925D02*
X813Y2925D01*
X889Y2925D02*
X1015Y2925D01*
X1095Y2925D02*
X1221Y2925D01*
X686Y2924D02*
X813Y2924D01*
X889Y2924D02*
X1016Y2924D01*
X1095Y2924D02*
X1222Y2924D01*
X686Y2923D02*
X814Y2923D01*
X888Y2923D02*
X1016Y2923D01*
X1094Y2923D02*
X1222Y2923D01*
X686Y2922D02*
X814Y2922D01*
X888Y2922D02*
X1016Y2922D01*
X1094Y2922D02*
X1222Y2922D01*
X685Y2921D02*
X814Y2921D01*
X888Y2921D02*
X1017Y2921D01*
X1094Y2921D02*
X1223Y2921D01*
X685Y2920D02*
X814Y2920D01*
X888Y2920D02*
X1017Y2920D01*
X1094Y2920D02*
X1223Y2920D01*
X685Y2919D02*
X815Y2919D01*
X887Y2919D02*
X1017Y2919D01*
X1093Y2919D02*
X1223Y2919D01*
X685Y2918D02*
X815Y2918D01*
X887Y2918D02*
X1017Y2918D01*
X1093Y2918D02*
X1223Y2918D01*
X685Y2917D02*
X815Y2917D01*
X887Y2917D02*
X1017Y2917D01*
X1093Y2917D02*
X1223Y2917D01*
X684Y2916D02*
X815Y2916D01*
X887Y2916D02*
X1018Y2916D01*
X1093Y2916D02*
X1224Y2916D01*
X684Y2915D02*
X815Y2915D01*
X887Y2915D02*
X1018Y2915D01*
X1093Y2915D02*
X1224Y2915D01*
X684Y2914D02*
X815Y2914D01*
X887Y2914D02*
X1018Y2914D01*
X1093Y2914D02*
X1224Y2914D01*
X684Y2913D02*
X816Y2913D01*
X886Y2913D02*
X1018Y2913D01*
X1092Y2913D02*
X1224Y2913D01*
X684Y2912D02*
X816Y2912D01*
X886Y2912D02*
X1018Y2912D01*
X1092Y2912D02*
X1224Y2912D01*
X684Y2911D02*
X816Y2911D01*
X886Y2911D02*
X1018Y2911D01*
X1092Y2911D02*
X1224Y2911D01*
X684Y2910D02*
X816Y2910D01*
X886Y2910D02*
X1018Y2910D01*
X1092Y2910D02*
X1224Y2910D01*
X683Y2909D02*
X816Y2909D01*
X886Y2909D02*
X1019Y2909D01*
X1092Y2909D02*
X1225Y2909D01*
X683Y2908D02*
X816Y2908D01*
X886Y2908D02*
X1019Y2908D01*
X1092Y2908D02*
X1225Y2908D01*
X683Y2907D02*
X816Y2907D01*
X886Y2907D02*
X1019Y2907D01*
X1092Y2907D02*
X1225Y2907D01*
X683Y2906D02*
X816Y2906D01*
X886Y2906D02*
X1019Y2906D01*
X1092Y2906D02*
X1225Y2906D01*
X683Y2905D02*
X816Y2905D01*
X886Y2905D02*
X1019Y2905D01*
X1092Y2905D02*
X1225Y2905D01*
X683Y2904D02*
X816Y2904D01*
X886Y2904D02*
X1019Y2904D01*
X1092Y2904D02*
X1225Y2904D01*
X683Y2903D02*
X816Y2903D01*
X886Y2903D02*
X1019Y2903D01*
X1092Y2903D02*
X1225Y2903D01*
X683Y2902D02*
X816Y2902D01*
X886Y2902D02*
X1019Y2902D01*
X1092Y2902D02*
X1225Y2902D01*
X683Y2901D02*
X816Y2901D01*
X886Y2901D02*
X1019Y2901D01*
X1092Y2901D02*
X1225Y2901D01*
X683Y2900D02*
X816Y2900D01*
X886Y2900D02*
X1019Y2900D01*
X1092Y2900D02*
X1225Y2900D01*
X684Y2899D02*
X816Y2899D01*
X886Y2899D02*
X1019Y2899D01*
X1092Y2899D02*
X1224Y2899D01*
X684Y2898D02*
X816Y2898D01*
X886Y2898D02*
X1018Y2898D01*
X1092Y2898D02*
X1224Y2898D01*
X684Y2897D02*
X816Y2897D01*
X886Y2897D02*
X1018Y2897D01*
X1092Y2897D02*
X1224Y2897D01*
X684Y2896D02*
X816Y2896D01*
X886Y2896D02*
X1018Y2896D01*
X1092Y2896D02*
X1224Y2896D01*
X684Y2895D02*
X815Y2895D01*
X886Y2895D02*
X1018Y2895D01*
X1092Y2895D02*
X1224Y2895D01*
X684Y2894D02*
X815Y2894D01*
X887Y2894D02*
X1018Y2894D01*
X1093Y2894D02*
X1224Y2894D01*
X684Y2893D02*
X815Y2893D01*
X887Y2893D02*
X1018Y2893D01*
X1093Y2893D02*
X1224Y2893D01*
X684Y2892D02*
X815Y2892D01*
X887Y2892D02*
X1018Y2892D01*
X1093Y2892D02*
X1224Y2892D01*
X685Y2891D02*
X815Y2891D01*
X887Y2891D02*
X1017Y2891D01*
X1093Y2891D02*
X1223Y2891D01*
X685Y2890D02*
X815Y2890D01*
X887Y2890D02*
X1017Y2890D01*
X1093Y2890D02*
X1223Y2890D01*
X685Y2889D02*
X814Y2889D01*
X888Y2889D02*
X1017Y2889D01*
X1094Y2889D02*
X1223Y2889D01*
X685Y2888D02*
X814Y2888D01*
X888Y2888D02*
X1017Y2888D01*
X1094Y2888D02*
X1223Y2888D01*
X686Y2887D02*
X814Y2887D01*
X888Y2887D02*
X1016Y2887D01*
X1094Y2887D02*
X1222Y2887D01*
X686Y2886D02*
X814Y2886D01*
X888Y2886D02*
X1016Y2886D01*
X1094Y2886D02*
X1222Y2886D01*
X686Y2885D02*
X813Y2885D01*
X889Y2885D02*
X1016Y2885D01*
X1095Y2885D02*
X1222Y2885D01*
X686Y2884D02*
X813Y2884D01*
X889Y2884D02*
X1016Y2884D01*
X1095Y2884D02*
X1222Y2884D01*
X687Y2883D02*
X813Y2883D01*
X889Y2883D02*
X1015Y2883D01*
X1095Y2883D02*
X1221Y2883D01*
X687Y2882D02*
X812Y2882D01*
X890Y2882D02*
X1015Y2882D01*
X1096Y2882D02*
X1221Y2882D01*
X687Y2881D02*
X812Y2881D01*
X890Y2881D02*
X1015Y2881D01*
X1096Y2881D02*
X1221Y2881D01*
X688Y2880D02*
X812Y2880D01*
X890Y2880D02*
X1014Y2880D01*
X1096Y2880D02*
X1220Y2880D01*
X688Y2879D02*
X811Y2879D01*
X891Y2879D02*
X1014Y2879D01*
X1097Y2879D02*
X1220Y2879D01*
X689Y2878D02*
X811Y2878D01*
X891Y2878D02*
X1013Y2878D01*
X1097Y2878D02*
X1219Y2878D01*
X689Y2877D02*
X810Y2877D01*
X892Y2877D02*
X1013Y2877D01*
X1098Y2877D02*
X1219Y2877D01*
X690Y2876D02*
X810Y2876D01*
X892Y2876D02*
X1012Y2876D01*
X1098Y2876D02*
X1218Y2876D01*
X690Y2875D02*
X809Y2875D01*
X893Y2875D02*
X1012Y2875D01*
X1099Y2875D02*
X1218Y2875D01*
X691Y2874D02*
X809Y2874D01*
X893Y2874D02*
X1011Y2874D01*
X1099Y2874D02*
X1217Y2874D01*
X691Y2873D02*
X808Y2873D01*
X894Y2873D02*
X1011Y2873D01*
X1099Y2873D02*
X1217Y2873D01*
X692Y2872D02*
X808Y2872D01*
X894Y2872D02*
X1010Y2872D01*
X1100Y2872D02*
X1216Y2872D01*
X692Y2871D02*
X807Y2871D01*
X895Y2871D02*
X1010Y2871D01*
X1101Y2871D02*
X1216Y2871D01*
X693Y2870D02*
X807Y2870D01*
X895Y2870D02*
X1009Y2870D01*
X1101Y2870D02*
X1215Y2870D01*
X693Y2869D02*
X806Y2869D01*
X896Y2869D02*
X1009Y2869D01*
X1102Y2869D02*
X1215Y2869D01*
X694Y2868D02*
X805Y2868D01*
X897Y2868D02*
X1008Y2868D01*
X1102Y2868D02*
X1214Y2868D01*
X695Y2867D02*
X805Y2867D01*
X897Y2867D02*
X1007Y2867D01*
X1103Y2867D02*
X1213Y2867D01*
X695Y2866D02*
X804Y2866D01*
X898Y2866D02*
X1007Y2866D01*
X1104Y2866D02*
X1213Y2866D01*
X696Y2865D02*
X803Y2865D01*
X899Y2865D02*
X1006Y2865D01*
X1105Y2865D02*
X1212Y2865D01*
X697Y2864D02*
X803Y2864D01*
X899Y2864D02*
X1005Y2864D01*
X1105Y2864D02*
X1211Y2864D01*
X698Y2863D02*
X802Y2863D01*
X900Y2863D02*
X1004Y2863D01*
X1106Y2863D02*
X1210Y2863D01*
X698Y2862D02*
X801Y2862D01*
X901Y2862D02*
X1004Y2862D01*
X1107Y2862D02*
X1210Y2862D01*
X699Y2861D02*
X800Y2861D01*
X902Y2861D02*
X1003Y2861D01*
X1108Y2861D02*
X1209Y2861D01*
X700Y2860D02*
X799Y2860D01*
X903Y2860D02*
X1002Y2860D01*
X1109Y2860D02*
X1208Y2860D01*
X701Y2859D02*
X799Y2859D01*
X903Y2859D02*
X1001Y2859D01*
X1109Y2859D02*
X1207Y2859D01*
X702Y2858D02*
X798Y2858D01*
X904Y2858D02*
X1000Y2858D01*
X1110Y2858D02*
X1206Y2858D01*
X703Y2857D02*
X797Y2857D01*
X905Y2857D02*
X999Y2857D01*
X1111Y2857D02*
X1205Y2857D01*
X704Y2856D02*
X796Y2856D01*
X906Y2856D02*
X998Y2856D01*
X1112Y2856D02*
X1204Y2856D01*
X705Y2855D02*
X795Y2855D01*
X907Y2855D02*
X997Y2855D01*
X1113Y2855D02*
X1203Y2855D01*
X706Y2854D02*
X793Y2854D01*
X909Y2854D02*
X996Y2854D01*
X1115Y2854D02*
X1202Y2854D01*
X707Y2853D02*
X792Y2853D01*
X910Y2853D02*
X995Y2853D01*
X1116Y2853D02*
X1201Y2853D01*
X708Y2852D02*
X791Y2852D01*
X911Y2852D02*
X994Y2852D01*
X1117Y2852D02*
X1200Y2852D01*
X710Y2851D02*
X790Y2851D01*
X912Y2851D02*
X992Y2851D01*
X1118Y2851D02*
X1198Y2851D01*
X711Y2850D02*
X788Y2850D01*
X914Y2850D02*
X991Y2850D01*
X1120Y2850D02*
X1197Y2850D01*
X712Y2849D02*
X787Y2849D01*
X915Y2849D02*
X989Y2849D01*
X1121Y2849D02*
X1195Y2849D01*
X714Y2848D02*
X785Y2848D01*
X917Y2848D02*
X988Y2848D01*
X1123Y2848D02*
X1194Y2848D01*
X716Y2847D02*
X784Y2847D01*
X918Y2847D02*
X986Y2847D01*
X1124Y2847D02*
X1192Y2847D01*
X717Y2846D02*
X782Y2846D01*
X920Y2846D02*
X985Y2846D01*
X1126Y2846D02*
X1191Y2846D01*
X719Y2845D02*
X780Y2845D01*
X922Y2845D02*
X983Y2845D01*
X1128Y2845D02*
X1189Y2845D01*
X721Y2844D02*
X778Y2844D01*
X924Y2844D02*
X981Y2844D01*
X1130Y2844D02*
X1187Y2844D01*
X723Y2843D02*
X776Y2843D01*
X926Y2843D02*
X979Y2843D01*
X1132Y2843D02*
X1185Y2843D01*
X726Y2842D02*
X774Y2842D01*
X928Y2842D02*
X976Y2842D01*
X1134Y2842D02*
X1182Y2842D01*
X728Y2841D02*
X771Y2841D01*
X931Y2841D02*
X974Y2841D01*
X1137Y2841D02*
X1180Y2841D01*
X732Y2840D02*
X768Y2840D01*
X934Y2840D02*
X970Y2840D01*
X1140Y2840D02*
X1176Y2840D01*
X736Y2839D02*
X764Y2839D01*
X938Y2839D02*
X966Y2839D01*
X1144Y2839D02*
X1172Y2839D01*
X741Y2838D02*
X758Y2838D01*
X944Y2838D02*
X961Y2838D01*
X1150Y2838D02*
X1167Y2838D01*
D02*
G04 End of Mask1*
M02*