; NON-PLATED HOLES START AT T1
; THROUGH (PLATED) HOLES START AT T100
M48
INCH
T100C0.068569
T101C0.035000
T102C0.040000
T103C0.100000
T104C0.038000
T105C0.015748
T106C0.031496
T107C0.030556
T108C0.031555
T109C0.068555
T110C0.030000
%
T100
X011589Y029038
X009529Y029038
T101
X007520Y004757
X014520Y004757
X009520Y004757
X031520Y018757
X008520Y004757
X018520Y001757
X016520Y004757
X015520Y004757
X011520Y001757
X016520Y001757
X017520Y001757
X006520Y004757
X009520Y001757
X012520Y004757
X013520Y004757
X006520Y001757
X018520Y004757
X030520Y018757
X019520Y001757
X012520Y001757
X026520Y012757
X010520Y004757
X019520Y004757
X007520Y001757
X013520Y001757
X010520Y001757
X008520Y001757
X011520Y004757
X015520Y001757
X025520Y012757
X028520Y021757
X032520Y021757
X017520Y004757
X014520Y001757
T102
X022520Y004757
X009517Y012757
X022520Y002757
X016531Y012757
X006519Y012757
X014517Y012757
X017527Y012757
X012527Y012757
X018516Y012757
X013542Y012759
X022520Y001757
X022520Y006757
X007527Y012757
X022520Y003757
X019523Y012757
X008522Y012757
X005513Y012757
X010524Y012757
X022520Y005757
X011528Y012752
X015570Y012757
T103
X028120Y027757
X029320Y025857
X030520Y027757
T104
X025520Y008757
X002520Y028757
X024520Y008757
X002520Y027757
T105
X010920Y005960
X013800Y003800
X020280Y005720
X021000Y007640
X028200Y015560
X019560Y006200
X028680Y013400
X006599Y011240
T106
X009589Y006757
T107
X002519Y001757
X002519Y003756
X002518Y002755
T108
X011520Y006757
T109
X007504Y029038
X013557Y029038
X015536Y029038
X017561Y029038
T110
X011520Y008757
X011520Y009759
X009520Y008757
X009520Y009759
T00
M30
